# xmcd
#
# Track frame offsets:
# 150
# 11673
# 20614
# 27629
# 33867
# 45782
# 56408
# 67152
# 77772
# 90144
# 99105
# 109571
#
# Disc length: 1574 seconds
#
#
# Revision: 0
# Processed by: cddbd v1.4PL0 Copyright (c) Steve Scherf et al.
# Submitted via: FreeRIP 2.00 
#
DISCID=8006240c
DTITLE=Waylon Jennings - Backtracks
DYEAR=1999
DGENRE=Country
TTITLE0=Sally Was A Good Old Girl
TTITLE1=Jole Blon
TTITLE2=It's So Easy
TTITLE3=Big Mamou
TTITLE4=Crying
TTITLE5=Money
TTITLE6=Burning Memories
TTITLE7=Lorena
TTITLE8=Don't Think Twice, It's Alright
TTITLE9=Love's Gonna Live Here
TTITLE10=White Lightning
TTITLE11=Abilene
EXTD=Renaissance
EXTT0=
EXTT1=
EXTT2=
EXTT3=
EXTT4=
EXTT5=
EXTT6=
EXTT7=
EXTT8=
EXTT9=
EXTT10=
EXTT11=
PLAYORDER=
